<?xml version="1.0" encoding="utf-8"?>
<!-- Generator: Adobe Illustrator 17.1.0, SVG Export Plug-In . SVG Version: 6.00 Build 0)  -->
<!DOCTYPE svg PUBLIC "-//W3C//DTD SVG 1.1//EN" "http://www.w3.org/Graphics/SVG/1.1/DTD/svg11.dtd">
<svg version="1.1" id="Layer_1" xmlns="http://www.w3.org/2000/svg" xmlns:xlink="http://www.w3.org/1999/xlink" x="0px" y="0px"
	 viewBox="437 117 131 30" enable-background="new 437 117 131 30" xml:space="preserve">
<g enable-background="new    ">
	<path fill="#00A79D" d="M446,132.2L446,132.2c0.4-0.5,0.8-0.9,1.4-1.2c0.6-0.3,1.2-0.4,1.9-0.4c0.6,0,1.2,0.1,1.6,0.3
		c0.5,0.2,0.9,0.5,1.3,0.8c0.4,0.4,0.6,0.8,0.8,1.3c0.2,0.5,0.3,1,0.3,1.6c0,0.6-0.1,1.2-0.3,1.7c-0.2,0.5-0.5,0.9-0.8,1.3
		c-0.4,0.4-0.8,0.6-1.3,0.8c-0.5,0.2-1,0.3-1.6,0.3c-0.6,0-1.1-0.1-1.7-0.3s-0.9-0.4-1.3-0.8c-0.4-0.3-0.6-0.7-0.8-1.2
		c-0.2-0.5-0.3-1-0.3-1.7h0.3c0,0.6,0.1,1.1,0.2,1.5s0.4,0.8,0.7,1.1s0.7,0.5,1.2,0.7c0.5,0.2,1,0.2,1.5,0.2c0.6,0,1.1-0.1,1.5-0.3
		s0.8-0.4,1.2-0.8s0.6-0.7,0.7-1.2s0.3-1,0.3-1.5c0-0.5-0.1-1-0.3-1.5c-0.2-0.5-0.4-0.8-0.7-1.2s-0.7-0.6-1.2-0.8
		c-0.5-0.2-1-0.3-1.5-0.3c-0.7,0-1.3,0.2-1.9,0.5c-0.6,0.3-1,0.7-1.4,1.3h-0.4l1.3-5.9h6v0.3h-5.7L446,132.2z"/>
	<path fill="#00A79D" d="M463.1,134.9c-0.1,0.7-0.4,1.4-0.7,1.9c-0.3,0.6-0.8,1-1.4,1.4c-0.6,0.3-1.3,0.5-2.1,0.5
		c-0.8,0-1.5-0.2-2.1-0.5c-0.6-0.3-1-0.8-1.4-1.4c-0.3-0.6-0.6-1.2-0.7-1.9c-0.1-0.7-0.2-1.4-0.2-2.2s0.1-1.5,0.2-2.2
		c0.1-0.7,0.4-1.4,0.7-1.9c0.3-0.6,0.8-1,1.4-1.4c0.6-0.4,1.3-0.5,2.1-0.5c0.8,0,1.6,0.2,2.1,0.5c0.6,0.4,1,0.8,1.4,1.4
		c0.3,0.6,0.6,1.2,0.7,1.9c0.1,0.7,0.2,1.4,0.2,2.2S463.2,134.2,463.1,134.9z M462.7,130.7c-0.1-0.7-0.3-1.3-0.7-1.8s-0.7-1-1.2-1.3
		c-0.5-0.3-1.2-0.5-2-0.5c-0.8,0-1.5,0.2-2,0.5c-0.5,0.3-0.9,0.8-1.2,1.3s-0.5,1.2-0.7,1.8s-0.2,1.3-0.2,2s0.1,1.3,0.2,2
		s0.3,1.3,0.7,1.8s0.7,1,1.2,1.3c0.5,0.3,1.2,0.5,2,0.5c0.8,0,1.5-0.2,2-0.5c0.5-0.3,0.9-0.8,1.2-1.3s0.5-1.2,0.7-1.8s0.2-1.3,0.2-2
		S462.9,131.4,462.7,130.7z"/>
</g>
<g enable-background="new    ">
	<path fill="#58595B" d="M478.7,126.3l-3.6,12.3h-0.5l-3.6-11.8h0l-3.5,11.8h-0.5l-3.6-12.3h0.3l3.5,11.8h0l3.5-11.8h0.5l3.6,11.8h0
		l3.4-11.8H478.7z"/>
	<path fill="#58595B" d="M479.1,132.4c0-0.9,0.1-1.7,0.4-2.5s0.6-1.5,1.1-2c0.5-0.6,1.1-1,1.8-1.4c0.7-0.3,1.5-0.5,2.4-0.5
		s1.7,0.2,2.4,0.5c0.7,0.3,1.3,0.8,1.8,1.4s0.8,1.3,1.1,2s0.4,1.6,0.4,2.5c0,0.9-0.1,1.7-0.4,2.5s-0.6,1.5-1.1,2
		c-0.5,0.6-1.1,1-1.8,1.4c-0.7,0.3-1.5,0.5-2.4,0.5s-1.7-0.2-2.4-0.5c-0.7-0.3-1.3-0.8-1.8-1.4c-0.5-0.6-0.8-1.3-1.1-2
		S479.1,133.3,479.1,132.4z M479.5,132.4c0,0.9,0.1,1.7,0.4,2.4c0.2,0.7,0.6,1.4,1,1.9c0.5,0.5,1,1,1.7,1.3s1.4,0.5,2.2,0.5
		c0.8,0,1.6-0.2,2.2-0.5s1.2-0.7,1.7-1.3s0.8-1.2,1-1.9c0.2-0.7,0.4-1.6,0.4-2.4c0-0.9-0.1-1.7-0.4-2.4c-0.2-0.7-0.6-1.4-1-1.9
		c-0.5-0.5-1-1-1.7-1.3c-0.7-0.3-1.4-0.5-2.2-0.5c-0.8,0-1.6,0.2-2.2,0.5c-0.7,0.3-1.2,0.7-1.7,1.3c-0.5,0.5-0.8,1.2-1,1.9
		C479.6,130.7,479.5,131.5,479.5,132.4z"/>
	<path fill="#58595B" d="M491.9,138.6v-12.3h5c1.3,0,2.2,0.3,2.8,0.8c0.6,0.5,0.9,1.3,0.9,2.4c0,0.8-0.2,1.5-0.7,2.1
		c-0.5,0.5-1.1,0.9-2,1.1v0c0.5,0.1,0.9,0.2,1.3,0.4c0.3,0.2,0.6,0.4,0.7,0.7c0.2,0.3,0.3,0.6,0.3,1c0.1,0.4,0.1,0.8,0.1,1.3
		c0,0.2,0,0.4,0,0.6c0,0.3,0,0.5,0.1,0.8c0,0.3,0.1,0.5,0.1,0.7c0,0.2,0.1,0.3,0.1,0.4h-0.4c-0.1-0.1-0.1-0.3-0.1-0.5
		c0-0.2-0.1-0.4-0.1-0.7s0-0.5,0-0.7c0-0.2,0-0.5,0-0.7c0-0.5,0-1-0.1-1.3c-0.1-0.4-0.2-0.7-0.5-1s-0.6-0.5-1-0.6s-1-0.2-1.7-0.2
		h-4.6v5.8H491.9z M496.8,132.5c0.5,0,0.9-0.1,1.3-0.2c0.4-0.1,0.8-0.3,1.1-0.5c0.3-0.3,0.6-0.6,0.8-1c0.2-0.4,0.3-0.8,0.3-1.4
		c0-0.9-0.3-1.5-0.8-2s-1.4-0.7-2.5-0.7h-4.8v5.8H496.8z"/>
	<path fill="#58595B" d="M506.7,126.3c0.6,0,1.2,0.1,1.8,0.3c0.6,0.2,1.2,0.5,1.7,1c0.5,0.5,0.9,1.1,1.2,1.9s0.5,1.8,0.5,3
		c0,1.1-0.2,2-0.5,2.8c-0.3,0.8-0.8,1.4-1.3,1.9c-0.5,0.5-1.1,0.8-1.8,1.1c-0.7,0.2-1.4,0.3-2.1,0.3h-3.8v-12.3H506.7z M506.2,138.2
		c0.7,0,1.4-0.1,2.1-0.4c0.6-0.2,1.2-0.6,1.7-1.1c0.5-0.5,0.9-1.1,1.2-1.8c0.3-0.7,0.4-1.6,0.4-2.6c0-1.1-0.1-2.1-0.4-2.8
		c-0.3-0.7-0.7-1.3-1.1-1.8c-0.5-0.4-1-0.7-1.6-0.9c-0.6-0.2-1.2-0.3-1.8-0.3h-3.9v11.6H506.2z"/>
	<path fill="#58595B" d="M521.3,128.1c-0.2-0.4-0.5-0.8-0.8-1c-0.3-0.3-0.8-0.5-1.2-0.6c-0.5-0.1-1-0.2-1.5-0.2
		c-0.4,0-0.9,0-1.3,0.1c-0.5,0.1-0.9,0.2-1.2,0.5c-0.4,0.2-0.7,0.5-0.9,0.9c-0.2,0.4-0.4,0.8-0.4,1.4s0.1,1,0.4,1.3
		c0.2,0.3,0.6,0.6,1,0.8c0.4,0.2,0.8,0.4,1.3,0.5c0.5,0.1,1,0.2,1.5,0.4c0.6,0.1,1.1,0.3,1.6,0.4c0.5,0.1,1,0.3,1.3,0.5
		c0.4,0.2,0.7,0.5,0.9,0.9c0.2,0.4,0.3,0.9,0.3,1.5c0,0.6-0.1,1.1-0.4,1.5c-0.3,0.4-0.6,0.8-1,1c-0.4,0.3-0.9,0.5-1.4,0.6
		c-0.5,0.1-1,0.2-1.6,0.2c-0.7,0-1.3-0.1-1.9-0.2c-0.6-0.2-1.1-0.4-1.5-0.8s-0.8-0.8-1-1.3c-0.2-0.5-0.3-1.2-0.3-2h0.3
		c0,0.7,0.1,1.4,0.3,1.9c0.2,0.5,0.5,0.9,0.9,1.2c0.4,0.3,0.9,0.6,1.4,0.7s1.1,0.2,1.8,0.2c0.5,0,1-0.1,1.4-0.2
		c0.5-0.1,0.9-0.3,1.3-0.5c0.4-0.2,0.7-0.5,0.9-0.9c0.2-0.4,0.4-0.8,0.4-1.4c0-0.6-0.1-1.1-0.4-1.5c-0.3-0.4-0.6-0.6-1-0.9
		c-0.4-0.2-0.9-0.4-1.4-0.5c-0.5-0.1-1-0.2-1.5-0.3c-0.5-0.1-1-0.2-1.5-0.4c-0.5-0.1-0.9-0.3-1.3-0.5s-0.7-0.5-1-0.9
		c-0.2-0.4-0.4-0.9-0.4-1.5c0-0.6,0.1-1.1,0.4-1.5c0.3-0.4,0.6-0.7,1-1c0.4-0.2,0.8-0.4,1.3-0.5c0.5-0.1,1-0.2,1.5-0.2
		c0.6,0,1.2,0.1,1.7,0.2c0.5,0.1,1,0.3,1.3,0.6c0.4,0.3,0.7,0.7,0.9,1.1c0.2,0.5,0.4,1.1,0.4,1.7h-0.3
		C521.7,129.1,521.5,128.6,521.3,128.1z"/>
</g>
<g enable-background="new    ">
	<path fill="#00A79D" d="M528.5,126h0.3l-5.6,12.8h-0.3L528.5,126z"/>
</g>
<g enable-background="new    ">
	<path fill="#58595B" d="M534,126.3c0.6,0,1.2,0.1,1.8,0.3c0.6,0.2,1.2,0.5,1.7,1c0.5,0.5,0.9,1.1,1.2,1.9s0.5,1.8,0.5,3
		c0,1.1-0.2,2-0.5,2.8c-0.3,0.8-0.8,1.4-1.3,1.9c-0.5,0.5-1.1,0.8-1.8,1.1c-0.7,0.2-1.4,0.3-2.1,0.3h-3.8v-12.3H534z M533.5,138.2
		c0.7,0,1.4-0.1,2.1-0.4c0.6-0.2,1.2-0.6,1.7-1.1c0.5-0.5,0.9-1.1,1.2-1.8c0.3-0.7,0.4-1.6,0.4-2.6c0-1.1-0.1-2.1-0.4-2.8
		c-0.3-0.7-0.7-1.3-1.1-1.8c-0.5-0.4-1-0.7-1.6-0.9c-0.6-0.2-1.2-0.3-1.8-0.3H530v11.6H533.5z"/>
	<path fill="#58595B" d="M540,138.6h-0.4l5-12.3h0.4l4.8,12.3h-0.4l-1.6-4h-6.2L540,138.6z M544.9,126.6L544.9,126.6l-3.1,7.5h6
		L544.9,126.6z"/>
	<path fill="#58595B" d="M558.8,126.3l-5,7.1v5.2h-0.3v-5.2l-4.9-7.1h0.4l4.7,6.7l4.7-6.7H558.8z"/>
</g>
</svg>
