<?xml version="1.0" encoding="utf-8"?>
<!-- Generator: Adobe Illustrator 17.1.0, SVG Export Plug-In . SVG Version: 6.00 Build 0)  -->
<!DOCTYPE svg PUBLIC "-//W3C//DTD SVG 1.1//EN" "http://www.w3.org/Graphics/SVG/1.1/DTD/svg11.dtd">
<svg version="1.1" id="Layer_1" xmlns="http://www.w3.org/2000/svg" xmlns:xlink="http://www.w3.org/1999/xlink" x="0px" y="0px"
	 viewBox="438.5 180 203 40" enable-background="new 438.5 180 203 40" xml:space="preserve">
<g enable-background="new    ">
	<path fill="#00A79D" d="M443.9,199.1L443.9,199.1c0.6-0.9,1.4-1.6,2.3-2.1c1-0.4,2-0.6,3.2-0.6c1,0,2,0.2,2.8,0.5
		c0.8,0.3,1.6,0.8,2.2,1.4c0.6,0.6,1.1,1.3,1.4,2.2c0.3,0.9,0.5,1.8,0.5,2.8c0,1.1-0.2,2-0.5,2.9c-0.3,0.9-0.8,1.6-1.4,2.2
		c-0.6,0.6-1.3,1.1-2.2,1.4c-0.8,0.3-1.8,0.5-2.8,0.5c-1,0-2-0.2-2.8-0.5c-0.9-0.3-1.6-0.7-2.2-1.3c-0.6-0.6-1.1-1.3-1.4-2.1
		c-0.3-0.8-0.5-1.8-0.4-2.9h0.6c0,1,0.1,1.9,0.4,2.6c0.3,0.8,0.7,1.4,1.3,1.9s1.2,0.9,2,1.2c0.8,0.3,1.7,0.4,2.7,0.4
		c1,0,1.9-0.2,2.6-0.5c0.8-0.3,1.4-0.7,2-1.3c0.6-0.6,1-1.2,1.3-2c0.3-0.8,0.4-1.7,0.4-2.6c0-0.9-0.2-1.8-0.5-2.6
		c-0.3-0.8-0.7-1.4-1.3-2c-0.6-0.6-1.2-1-2-1.3c-0.8-0.3-1.7-0.5-2.6-0.5c-1.2,0-2.3,0.3-3.3,0.8c-1,0.5-1.8,1.3-2.3,2.3h-0.7
		l2.2-10.1h10.3v0.6h-9.8L443.9,199.1z"/>
	<path fill="#00A79D" d="M473.2,203.7c-0.2,1.2-0.7,2.3-1.3,3.3c-0.6,1-1.4,1.8-2.3,2.4c-1,0.6-2.2,0.9-3.6,0.9
		c-1.4,0-2.6-0.3-3.6-0.9c-1-0.6-1.8-1.4-2.3-2.4c-0.6-1-1-2.1-1.3-3.3c-0.2-1.2-0.4-2.5-0.4-3.7c0-1.3,0.1-2.5,0.4-3.7
		c0.2-1.2,0.7-2.3,1.3-3.3c0.6-1,1.4-1.8,2.3-2.4c1-0.6,2.2-0.9,3.6-0.9c1.5,0,2.7,0.3,3.6,0.9c1,0.6,1.7,1.4,2.3,2.4
		c0.6,1,1,2.1,1.3,3.3c0.2,1.2,0.4,2.5,0.4,3.7C473.5,201.2,473.4,202.4,473.2,203.7z M472.6,196.5c-0.2-1.2-0.6-2.2-1.1-3.2
		c-0.5-0.9-1.2-1.7-2.1-2.3c-0.9-0.6-2-0.9-3.4-0.9c-1.4,0-2.5,0.3-3.4,0.9c-0.9,0.6-1.6,1.4-2.1,2.3c-0.5,0.9-0.9,2-1.1,3.2
		c-0.2,1.2-0.3,2.3-0.3,3.4s0.1,2.3,0.3,3.4c0.2,1.2,0.6,2.2,1.1,3.2c0.5,0.9,1.2,1.7,2.1,2.3c0.9,0.6,2,0.9,3.4,0.9
		c1.4,0,2.5-0.3,3.4-0.9c0.9-0.6,1.6-1.4,2.1-2.3c0.5-0.9,0.9-2,1.1-3.2c0.2-1.2,0.3-2.3,0.3-3.4S472.9,197.7,472.6,196.5z"/>
</g>
<g enable-background="new    ">
	<path fill="#58595B" d="M500.1,188.9l-6.1,21h-0.8l-6.2-20.3H487l-6.1,20.3h-0.8l-6.2-21h0.6l6,20.3h0.1l6.1-20.3h0.9l6.2,20.3h0.1
		l5.9-20.3H500.1z"/>
	<path fill="#58595B" d="M500.8,199.4c0-1.5,0.2-2.9,0.6-4.2s1-2.5,1.9-3.5c0.8-1,1.8-1.8,3-2.4c1.2-0.6,2.6-0.9,4.2-0.9
		c1.6,0,3,0.3,4.2,0.9c1.2,0.6,2.2,1.4,3,2.4c0.8,1,1.4,2.2,1.9,3.5s0.6,2.8,0.6,4.2c0,1.5-0.2,2.9-0.6,4.2c-0.4,1.3-1,2.5-1.9,3.5
		c-0.8,1-1.8,1.8-3,2.4c-1.2,0.6-2.6,0.9-4.2,0.9c-1.6,0-3-0.3-4.2-0.9c-1.2-0.6-2.2-1.4-3-2.4c-0.8-1-1.4-2.2-1.9-3.5
		C501,202.3,500.8,200.9,500.8,199.4z M501.4,199.4c0,1.5,0.2,2.9,0.7,4.2c0.4,1.3,1,2.4,1.8,3.3c0.8,0.9,1.7,1.6,2.8,2.2
		s2.4,0.8,3.8,0.8c1.4,0,2.7-0.3,3.8-0.8s2.1-1.2,2.8-2.2c0.8-0.9,1.4-2,1.8-3.3c0.4-1.3,0.6-2.7,0.7-4.2c0-1.5-0.2-2.9-0.7-4.2
		c-0.4-1.3-1-2.4-1.8-3.3c-0.8-0.9-1.7-1.6-2.8-2.2c-1.1-0.5-2.4-0.8-3.8-0.8c-1.4,0-2.7,0.3-3.8,0.8c-1.1,0.5-2.1,1.2-2.8,2.2
		c-0.8,0.9-1.4,2-1.8,3.3C501.6,196.5,501.4,197.9,501.4,199.4z"/>
	<path fill="#58595B" d="M522.7,210v-21h8.6c2.2,0,3.8,0.4,4.8,1.3c1,0.9,1.6,2.2,1.6,4.1c0,1.4-0.3,2.6-1.1,3.5
		c-0.8,0.9-1.9,1.6-3.4,1.9v0.1c0.9,0.1,1.6,0.3,2.2,0.6c0.6,0.3,1,0.7,1.3,1.2c0.3,0.5,0.5,1.1,0.6,1.7c0.1,0.7,0.1,1.4,0.1,2.3
		c0,0.3,0,0.7,0,1.1c0,0.4,0,0.9,0.1,1.3c0,0.4,0.1,0.8,0.1,1.2c0.1,0.4,0.1,0.6,0.2,0.7h-0.6c-0.1-0.2-0.2-0.5-0.2-0.9
		c-0.1-0.4-0.1-0.8-0.1-1.2c0-0.4,0-0.8-0.1-1.3c0-0.4,0-0.8,0-1.1c0-0.9-0.1-1.6-0.2-2.3c-0.1-0.7-0.4-1.2-0.8-1.7
		c-0.4-0.5-1-0.8-1.7-1.1c-0.7-0.2-1.7-0.4-2.9-0.4h-7.9v9.9H522.7z M531.1,199.5c0.8,0,1.5-0.1,2.3-0.3c0.7-0.2,1.4-0.5,1.9-0.9
		c0.6-0.4,1-1,1.3-1.6c0.3-0.7,0.5-1.4,0.5-2.4c0-1.5-0.5-2.7-1.4-3.5c-0.9-0.8-2.3-1.3-4.3-1.3h-8.2v10H531.1z"/>
	<path fill="#58595B" d="M548,188.9c1,0,2.1,0.2,3.2,0.5c1.1,0.3,2,0.9,2.9,1.7c0.9,0.8,1.6,1.9,2.1,3.2c0.5,1.4,0.8,3.1,0.8,5.1
		c0,1.9-0.3,3.5-0.8,4.8c-0.6,1.3-1.3,2.4-2.2,3.3c-0.9,0.8-2,1.4-3.2,1.8c-1.2,0.4-2.4,0.6-3.7,0.6h-6.5v-21H548z M547.3,209.4
		c1.2,0,2.4-0.2,3.5-0.6c1.1-0.4,2.1-1,2.9-1.8c0.8-0.8,1.5-1.8,2-3.1c0.5-1.2,0.7-2.7,0.7-4.4c0-2-0.2-3.6-0.7-4.9
		c-0.5-1.3-1.1-2.3-1.9-3.1c-0.8-0.8-1.7-1.3-2.7-1.6c-1-0.3-2-0.4-3.1-0.4h-6.6v19.9H547.3z"/>
	<path fill="#58595B" d="M573.2,192.1c-0.4-0.7-0.8-1.3-1.4-1.8c-0.6-0.5-1.3-0.8-2.1-1c-0.8-0.2-1.7-0.3-2.7-0.3
		c-0.7,0-1.5,0.1-2.3,0.2c-0.8,0.1-1.5,0.4-2.1,0.8c-0.6,0.4-1.2,0.9-1.6,1.5c-0.4,0.6-0.6,1.4-0.6,2.3s0.2,1.7,0.6,2.3
		c0.4,0.6,1,1,1.7,1.4c0.7,0.4,1.4,0.6,2.3,0.8c0.9,0.2,1.7,0.4,2.7,0.6c1,0.3,1.9,0.5,2.8,0.7c0.9,0.2,1.6,0.6,2.3,0.9
		c0.6,0.4,1.2,0.9,1.5,1.6c0.4,0.6,0.6,1.5,0.6,2.6c0,1-0.2,1.9-0.6,2.6c-0.4,0.7-1,1.3-1.7,1.8c-0.7,0.5-1.5,0.8-2.4,1
		c-0.9,0.2-1.8,0.3-2.7,0.3c-1.2,0-2.3-0.1-3.3-0.4c-1-0.3-1.9-0.7-2.6-1.3c-0.7-0.6-1.3-1.4-1.7-2.3c-0.4-0.9-0.6-2.1-0.6-3.4h0.6
		c0,1.3,0.2,2.3,0.6,3.2c0.4,0.9,0.9,1.6,1.6,2.1c0.7,0.6,1.5,0.9,2.4,1.2c0.9,0.2,2,0.4,3.1,0.4c0.8,0,1.6-0.1,2.5-0.3
		c0.8-0.2,1.5-0.5,2.2-0.9c0.6-0.4,1.2-0.9,1.6-1.6c0.4-0.6,0.6-1.4,0.6-2.3c0-1.1-0.2-1.9-0.7-2.5c-0.5-0.6-1.1-1.1-1.8-1.5
		c-0.7-0.4-1.5-0.6-2.4-0.8c-0.9-0.2-1.7-0.4-2.5-0.6c-0.8-0.2-1.7-0.4-2.5-0.6c-0.8-0.2-1.6-0.5-2.3-0.9c-0.7-0.4-1.2-0.9-1.6-1.5
		c-0.4-0.6-0.6-1.5-0.6-2.5c0-1,0.2-1.9,0.6-2.6c0.4-0.7,1-1.3,1.7-1.7c0.7-0.4,1.5-0.7,2.3-0.9c0.9-0.2,1.7-0.3,2.5-0.3
		c1,0,2,0.1,2.9,0.3c0.9,0.2,1.6,0.6,2.3,1.1c0.7,0.5,1.2,1.2,1.6,2c0.4,0.8,0.6,1.8,0.7,3h-0.6
		C573.8,193.7,573.6,192.8,573.2,192.1z"/>
</g>
<g enable-background="new    ">
	<path fill="#00A79D" d="M585.6,188.4h0.6l-9.6,22H576L585.6,188.4z"/>
</g>
<g enable-background="new    ">
	<path fill="#58595B" d="M594.9,188.9c1,0,2.1,0.2,3.2,0.5c1.1,0.3,2,0.9,2.9,1.7c0.9,0.8,1.6,1.9,2.1,3.2c0.5,1.4,0.8,3.1,0.8,5.1
		c0,1.9-0.3,3.5-0.8,4.8c-0.6,1.3-1.3,2.4-2.2,3.3c-0.9,0.8-2,1.4-3.2,1.8c-1.2,0.4-2.4,0.6-3.7,0.6h-6.5v-21H594.9z M594.2,209.4
		c1.2,0,2.4-0.2,3.5-0.6c1.1-0.4,2.1-1,2.9-1.8c0.8-0.8,1.5-1.8,2-3.1c0.5-1.2,0.7-2.7,0.7-4.4c0-2-0.2-3.6-0.7-4.9
		c-0.5-1.3-1.1-2.3-1.9-3.1c-0.8-0.8-1.7-1.3-2.7-1.6c-1-0.3-2-0.4-3.1-0.4h-6.6v19.9H594.2z"/>
	<path fill="#58595B" d="M605.4,210h-0.6l8.5-21h0.8l8.3,21h-0.6l-2.8-6.9h-10.7L605.4,210z M613.7,189.5L613.7,189.5l-5.2,12.9
		h10.3L613.7,189.5z"/>
	<path fill="#58595B" d="M637.7,188.9l-8.5,12.2v8.9h-0.6v-8.9l-8.5-12.2h0.7l8,11.6l8.1-11.6H637.7z"/>
</g>
</svg>
